<?xml version="1.0" encoding="iso-8859-1"?>
<!-- Generator: Adobe Illustrator 19.0.0, SVG Export Plug-In . SVG Version: 6.00 Build 0)  -->
<svg version="1.1" id="Capa_1" xmlns="http://www.w3.org/2000/svg" xmlns:xlink="http://www.w3.org/1999/xlink" x="0px" y="0px"
	 viewBox="0 0 504.375 504.375" style="enable-background:new 0 0 504.375 504.375;" xml:space="preserve">
<g>
	<g>
		<g>
			<path d="M443.292,157.799l29.392-12.656c-4.539-10.491-9.81-20.65-15.776-30.4l-27.296,16.704
				C434.791,139.895,439.363,148.701,443.292,157.799z"/>
			<path d="M412.332,107.239l24.64-20.4c-7.294-8.803-15.208-17.075-23.68-24.752l-21.488,23.776
				C399.142,92.495,406.002,99.638,412.332,107.239z"/>
			<path d="M483.948,177.527l-30.896,8.304c29.815,111.067-36.053,225.274-147.12,255.088c-17.533,4.707-35.606,7.1-53.76,7.12
				c-31.242-0.006-62.073-7.119-90.16-20.8l-5.936-2.864l-90.928,31.328l19.584-92.192l-3.904-5.68
				C15.804,263.13,39.862,133.648,134.563,68.624c70.356-48.308,163.081-48.736,233.88-1.081l17.904-26.528
				C276.438-33.072,127.279-4.032,53.192,105.878c-53.686,79.645-54.717,183.627-2.62,264.32l-28.48,134.176l132.08-45.472
				c30.788,13.948,64.201,21.154,98,21.136c132.654-0.105,240.107-107.728,240.002-240.382
				C492.157,218.676,489.391,197.788,483.948,177.527z"/>
			<path d="M256.06,168.279l-79.2-79.2l-45.264,45.264c-31.188,31.264-31.188,81.872,0,113.136l113.152,113.12
				c31.24,31.231,81.88,31.231,113.12,0l45.28-45.248l-79.216-79.184l-22.624,22.624c-6.248,6.246-16.376,6.246-22.624,0
				l-45.264-45.264c-6.246-6.248-6.246-16.376,0-22.624L256.06,168.279z M256.06,281.415c18.744,18.738,49.128,18.738,67.872,0
				l33.936,33.936l-22.624,22.624c-18.993,18.127-48.879,18.127-67.872,0L154.22,224.855c-18.705-18.764-18.705-49.124,0-67.888
				l22.64-22.624l33.936,33.936c-18.738,18.744-18.738,49.128,0,67.872L256.06,281.415z"/>
		</g>
	</g>
</g>
<g>
</g>
<g>
</g>
<g>
</g>
<g>
</g>
<g>
</g>
<g>
</g>
<g>
</g>
<g>
</g>
<g>
</g>
<g>
</g>
<g>
</g>
<g>
</g>
<g>
</g>
<g>
</g>
<g>
</g>
</svg>
